<?xml version="1.0" encoding="UTF-8" standalone="no"?><svg xmlns="http://www.w3.org/2000/svg" xmlns:xlink="http://www.w3.org/1999/xlink" contentScriptType="application/ecmascript" contentStyleType="text/css" height="1353px" preserveAspectRatio="none" style="width:712px;height:1353px;" version="1.1" viewBox="0 0 712 1353" width="712px" zoomAndPan="magnify"><defs/><g><!--cluster Phalcon--><polygon fill="#FFFFFF" points="179,957,247,957,254,979.2969,335,979.2969,335,1308,179,1308,179,957" style="stroke: #000000; stroke-width: 1.5;"/><line style="stroke: #000000; stroke-width: 1.5;" x1="179" x2="254" y1="979.2969" y2="979.2969"/><text fill="#000000" font-family="sans-serif" font-size="14" font-weight="bold" lengthAdjust="spacingAndGlyphs" textLength="62" x="183" y="971.9951">Phalcon</text><!--cluster Phalcon\\CLI--><polygon fill="#FFFFFF" points="31,305,128,305,135,327.2969,138,327.2969,138,388,31,388,31,305" style="stroke: #000000; stroke-width: 1.5;"/><line style="stroke: #000000; stroke-width: 1.5;" x1="31" x2="135" y1="327.2969" y2="327.2969"/><text fill="#000000" font-family="sans-serif" font-size="14" font-weight="bold" lengthAdjust="spacingAndGlyphs" textLength="91" x="35" y="319.9951">Phalcon\CLI</text><!--cluster Phalcon\\Builder--><polygon fill="#FFFFFF" points="381,321,509,321,516,343.2969,519,343.2969,519,1007,381,1007,381,321" style="stroke: #000000; stroke-width: 1.5;"/><line style="stroke: #000000; stroke-width: 1.5;" x1="381" x2="516" y1="343.2969" y2="343.2969"/><text fill="#000000" font-family="sans-serif" font-size="14" font-weight="bold" lengthAdjust="spacingAndGlyphs" textLength="122" x="385" y="335.9951">Phalcon\Builder</text><!--cluster Phalcon\\DI--><polygon fill="#FFFFFF" points="194.5,522,282.5,522,289.5,544.2969,319.5,544.2969,319.5,605,194.5,605,194.5,522" style="stroke: #000000; stroke-width: 1.5;"/><line style="stroke: #000000; stroke-width: 1.5;" x1="194.5" x2="289.5" y1="544.2969" y2="544.2969"/><text fill="#000000" font-family="sans-serif" font-size="14" font-weight="bold" lengthAdjust="spacingAndGlyphs" textLength="82" x="198.5" y="536.9951">Phalcon\DI</text><!--cluster Phalcon\\Mvc--><polygon fill="#FFFFFF" points="22,964,126,964,133,986.2969,147,986.2969,147,1114,22,1114,22,964" style="stroke: #000000; stroke-width: 1.5;"/><line style="stroke: #000000; stroke-width: 1.5;" x1="22" x2="133" y1="986.2969" y2="986.2969"/><text fill="#000000" font-family="sans-serif" font-size="14" font-weight="bold" lengthAdjust="spacingAndGlyphs" textLength="98" x="26" y="978.9951">Phalcon\Mvc</text><!--cluster Phalcon\\Forms--><polygon fill="#FFFFFF" points="19,1151,141,1151,148,1173.2969,151,1173.2969,151,1234,19,1234,19,1151" style="stroke: #000000; stroke-width: 1.5;"/><line style="stroke: #000000; stroke-width: 1.5;" x1="19" x2="148" y1="1173.2969" y2="1173.2969"/><text fill="#000000" font-family="sans-serif" font-size="14" font-weight="bold" lengthAdjust="spacingAndGlyphs" textLength="116" x="23" y="1165.9951">Phalcon\Forms</text><!--cluster Phalcon\\Di--><polygon fill="#FFFFFF" points="22,1258,110,1258,117,1280.2969,147,1280.2969,147,1341,22,1341,22,1258" style="stroke: #000000; stroke-width: 1.5;"/><line style="stroke: #000000; stroke-width: 1.5;" x1="22" x2="117" y1="1280.2969" y2="1280.2969"/><text fill="#000000" font-family="sans-serif" font-size="14" font-weight="bold" lengthAdjust="spacingAndGlyphs" textLength="82" x="26" y="1272.9951">Phalcon\Di</text><!--cluster Phalcon\\Tools--><polygon fill="#FFFFFF" points="21.5,198,137.5,198,144.5,220.2969,147.5,220.2969,147.5,281,21.5,281,21.5,198" style="stroke: #000000; stroke-width: 1.5;"/><line style="stroke: #000000; stroke-width: 1.5;" x1="21.5" x2="144.5" y1="220.2969" y2="220.2969"/><text fill="#000000" font-family="sans-serif" font-size="14" font-weight="bold" lengthAdjust="spacingAndGlyphs" textLength="110" x="25.5" y="212.9951">Phalcon\Tools</text><!--cluster Manager--><polygon fill="#FFFFFF" points="38,24,112,24,119,46.2969,131,46.2969,131,174,38,174,38,24" style="stroke: #000000; stroke-width: 1.5;"/><line style="stroke: #000000; stroke-width: 1.5;" x1="38" x2="119" y1="46.2969" y2="46.2969"/><text fill="#000000" font-family="sans-serif" font-size="14" font-weight="bold" lengthAdjust="spacingAndGlyphs" textLength="68" x="42" y="38.9951">Manager</text><!--class Phalcon\\ControllerBase--><rect fill="#FEFECE" height="32" id="Phalcon\\ControllerBase" style="stroke: #A80036; stroke-width: 1.5;" width="124" x="195" y="1126"/><ellipse cx="210" cy="1142" fill="#ADD1B2" rx="11" ry="11" style="stroke: #A80036; stroke-width: 1.0;"/><path d="M212.9688,1147.6406 Q212.3906,1147.9375 211.75,1148.0781 Q211.1094,1148.2344 210.4063,1148.2344 Q207.9063,1148.2344 206.5781,1146.5938 Q205.2656,1144.9375 205.2656,1141.8125 Q205.2656,1138.6875 206.5781,1137.0313 Q207.9063,1135.375 210.4063,1135.375 Q211.1094,1135.375 211.75,1135.5313 Q212.4063,1135.6875 212.9688,1135.9844 L212.9688,1138.7031 Q212.3438,1138.125 211.75,1137.8594 Q211.1563,1137.5781 210.5313,1137.5781 Q209.1875,1137.5781 208.5,1138.6563 Q207.8125,1139.7188 207.8125,1141.8125 Q207.8125,1143.9063 208.5,1144.9844 Q209.1875,1146.0469 210.5313,1146.0469 Q211.1563,1146.0469 211.75,1145.7813 Q212.3438,1145.5 212.9688,1144.9219 L212.9688,1147.6406 Z "/><text fill="#000000" font-family="sans-serif" font-size="12" lengthAdjust="spacingAndGlyphs" textLength="92" x="224" y="1146.1543">ControllerBase</text><!--class Phalcon\\FormBase--><rect fill="#FEFECE" height="32" id="Phalcon\\FormBase" style="stroke: #A80036; stroke-width: 1.5;" width="94" x="210" y="1193"/><ellipse cx="225" cy="1209" fill="#ADD1B2" rx="11" ry="11" style="stroke: #A80036; stroke-width: 1.0;"/><path d="M227.9688,1214.6406 Q227.3906,1214.9375 226.75,1215.0781 Q226.1094,1215.2344 225.4063,1215.2344 Q222.9063,1215.2344 221.5781,1213.5938 Q220.2656,1211.9375 220.2656,1208.8125 Q220.2656,1205.6875 221.5781,1204.0313 Q222.9063,1202.375 225.4063,1202.375 Q226.1094,1202.375 226.75,1202.5313 Q227.4063,1202.6875 227.9688,1202.9844 L227.9688,1205.7031 Q227.3438,1205.125 226.75,1204.8594 Q226.1563,1204.5781 225.5313,1204.5781 Q224.1875,1204.5781 223.5,1205.6563 Q222.8125,1206.7188 222.8125,1208.8125 Q222.8125,1210.9063 223.5,1211.9844 Q224.1875,1213.0469 225.5313,1213.0469 Q226.1563,1213.0469 226.75,1212.7813 Q227.3438,1212.5 227.9688,1211.9219 L227.9688,1214.6406 Z "/><text fill="#000000" font-family="sans-serif" font-size="12" lengthAdjust="spacingAndGlyphs" textLength="62" x="239" y="1213.1543">FormBase</text><!--class Phalcon\\Library--><rect fill="#FEFECE" height="32" id="Phalcon\\Library" style="stroke: #A80036; stroke-width: 1.5;" width="73" x="220.5" y="1260"/><ellipse cx="235.5" cy="1276" fill="#ADD1B2" rx="11" ry="11" style="stroke: #A80036; stroke-width: 1.0;"/><path d="M238.4688,1281.6406 Q237.8906,1281.9375 237.25,1282.0781 Q236.6094,1282.2344 235.9063,1282.2344 Q233.4063,1282.2344 232.0781,1280.5938 Q230.7656,1278.9375 230.7656,1275.8125 Q230.7656,1272.6875 232.0781,1271.0313 Q233.4063,1269.375 235.9063,1269.375 Q236.6094,1269.375 237.25,1269.5313 Q237.9063,1269.6875 238.4688,1269.9844 L238.4688,1272.7031 Q237.8438,1272.125 237.25,1271.8594 Q236.6563,1271.5781 236.0313,1271.5781 Q234.6875,1271.5781 234,1272.6563 Q233.3125,1273.7188 233.3125,1275.8125 Q233.3125,1277.9063 234,1278.9844 Q234.6875,1280.0469 236.0313,1280.0469 Q236.6563,1280.0469 237.25,1279.7813 Q237.8438,1279.5 238.4688,1278.9219 L238.4688,1281.6406 Z "/><text fill="#000000" font-family="sans-serif" font-size="12" lengthAdjust="spacingAndGlyphs" textLength="41" x="249.5" y="1280.1543">Library</text><!--class Phalcon\\ModelBase--><rect fill="#FEFECE" height="32" id="Phalcon\\ModelBase" style="stroke: #A80036; stroke-width: 1.5;" width="100" x="207" y="992"/><ellipse cx="222" cy="1008" fill="#ADD1B2" rx="11" ry="11" style="stroke: #A80036; stroke-width: 1.0;"/><path d="M224.9688,1013.6406 Q224.3906,1013.9375 223.75,1014.0781 Q223.1094,1014.2344 222.4063,1014.2344 Q219.9063,1014.2344 218.5781,1012.5938 Q217.2656,1010.9375 217.2656,1007.8125 Q217.2656,1004.6875 218.5781,1003.0313 Q219.9063,1001.375 222.4063,1001.375 Q223.1094,1001.375 223.75,1001.5313 Q224.4063,1001.6875 224.9688,1001.9844 L224.9688,1004.7031 Q224.3438,1004.125 223.75,1003.8594 Q223.1563,1003.5781 222.5313,1003.5781 Q221.1875,1003.5781 220.5,1004.6563 Q219.8125,1005.7188 219.8125,1007.8125 Q219.8125,1009.9063 220.5,1010.9844 Q221.1875,1012.0469 222.5313,1012.0469 Q223.1563,1012.0469 223.75,1011.7813 Q224.3438,1011.5 224.9688,1010.9219 L224.9688,1013.6406 Z "/><text fill="#000000" font-family="sans-serif" font-size="12" lengthAdjust="spacingAndGlyphs" textLength="68" x="236" y="1012.1543">ModelBase</text><!--class Phalcon\\Tag--><rect fill="#FEFECE" height="32" id="Phalcon\\Tag" style="stroke: #A80036; stroke-width: 1.5;" width="55" x="229.5" y="1059"/><ellipse cx="244.5" cy="1075" fill="#ADD1B2" rx="11" ry="11" style="stroke: #A80036; stroke-width: 1.0;"/><path d="M247.4688,1080.6406 Q246.8906,1080.9375 246.25,1081.0781 Q245.6094,1081.2344 244.9063,1081.2344 Q242.4063,1081.2344 241.0781,1079.5938 Q239.7656,1077.9375 239.7656,1074.8125 Q239.7656,1071.6875 241.0781,1070.0313 Q242.4063,1068.375 244.9063,1068.375 Q245.6094,1068.375 246.25,1068.5313 Q246.9063,1068.6875 247.4688,1068.9844 L247.4688,1071.7031 Q246.8438,1071.125 246.25,1070.8594 Q245.6563,1070.5781 245.0313,1070.5781 Q243.6875,1070.5781 243,1071.6563 Q242.3125,1072.7188 242.3125,1074.8125 Q242.3125,1076.9063 243,1077.9844 Q243.6875,1079.0469 245.0313,1079.0469 Q245.6563,1079.0469 246.25,1078.7813 Q246.8438,1078.5 247.4688,1077.9219 L247.4688,1080.6406 Z "/><text fill="#000000" font-family="sans-serif" font-size="12" lengthAdjust="spacingAndGlyphs" textLength="23" x="258.5" y="1079.1543">Tag</text><!--class Phalcon\\CLI\\Task--><rect fill="#FEFECE" height="32" id="Phalcon\\CLI\\Task" style="stroke: #A80036; stroke-width: 1.5;" width="61" x="54" y="340"/><ellipse cx="69" cy="356" fill="#ADD1B2" rx="11" ry="11" style="stroke: #A80036; stroke-width: 1.0;"/><path d="M71.9688,361.6406 Q71.3906,361.9375 70.75,362.0781 Q70.1094,362.2344 69.4063,362.2344 Q66.9063,362.2344 65.5781,360.5938 Q64.2656,358.9375 64.2656,355.8125 Q64.2656,352.6875 65.5781,351.0313 Q66.9063,349.375 69.4063,349.375 Q70.1094,349.375 70.75,349.5313 Q71.4063,349.6875 71.9688,349.9844 L71.9688,352.7031 Q71.3438,352.125 70.75,351.8594 Q70.1563,351.5781 69.5313,351.5781 Q68.1875,351.5781 67.5,352.6563 Q66.8125,353.7188 66.8125,355.8125 Q66.8125,357.9063 67.5,358.9844 Q68.1875,360.0469 69.5313,360.0469 Q70.1563,360.0469 70.75,359.7813 Q71.3438,359.5 71.9688,358.9219 L71.9688,361.6406 Z "/><text fill="#000000" font-family="sans-serif" font-size="12" lengthAdjust="spacingAndGlyphs" textLength="29" x="83" y="360.1543">Task</text><!--class Phalcon\\Builder\\Task--><rect fill="#FEFECE" height="32" id="Phalcon\\Builder\\Task" style="stroke: #A80036; stroke-width: 1.5;" width="61" x="419" y="423"/><ellipse cx="434" cy="439" fill="#ADD1B2" rx="11" ry="11" style="stroke: #A80036; stroke-width: 1.0;"/><path d="M436.9688,444.6406 Q436.3906,444.9375 435.75,445.0781 Q435.1094,445.2344 434.4063,445.2344 Q431.9063,445.2344 430.5781,443.5938 Q429.2656,441.9375 429.2656,438.8125 Q429.2656,435.6875 430.5781,434.0313 Q431.9063,432.375 434.4063,432.375 Q435.1094,432.375 435.75,432.5313 Q436.4063,432.6875 436.9688,432.9844 L436.9688,435.7031 Q436.3438,435.125 435.75,434.8594 Q435.1563,434.5781 434.5313,434.5781 Q433.1875,434.5781 432.5,435.6563 Q431.8125,436.7188 431.8125,438.8125 Q431.8125,440.9063 432.5,441.9844 Q433.1875,443.0469 434.5313,443.0469 Q435.1563,443.0469 435.75,442.7813 Q436.3438,442.5 436.9688,441.9219 L436.9688,444.6406 Z "/><text fill="#000000" font-family="sans-serif" font-size="12" lengthAdjust="spacingAndGlyphs" textLength="29" x="448" y="443.1543">Task</text><!--class Phalcon\\Builder\\Build--><rect fill="#FEFECE" height="32" id="Phalcon\\Builder\\Build" style="stroke: #A80036; stroke-width: 1.5;" width="62" x="418.5" y="490"/><ellipse cx="433.5" cy="506" fill="#ADD1B2" rx="11" ry="11" style="stroke: #A80036; stroke-width: 1.0;"/><path d="M436.4688,511.6406 Q435.8906,511.9375 435.25,512.0781 Q434.6094,512.2344 433.9063,512.2344 Q431.4063,512.2344 430.0781,510.5938 Q428.7656,508.9375 428.7656,505.8125 Q428.7656,502.6875 430.0781,501.0313 Q431.4063,499.375 433.9063,499.375 Q434.6094,499.375 435.25,499.5313 Q435.9063,499.6875 436.4688,499.9844 L436.4688,502.7031 Q435.8438,502.125 435.25,501.8594 Q434.6563,501.5781 434.0313,501.5781 Q432.6875,501.5781 432,502.6563 Q431.3125,503.7188 431.3125,505.8125 Q431.3125,507.9063 432,508.9844 Q432.6875,510.0469 434.0313,510.0469 Q434.6563,510.0469 435.25,509.7813 Q435.8438,509.5 436.4688,508.9219 L436.4688,511.6406 Z "/><text fill="#000000" font-family="sans-serif" font-size="12" lengthAdjust="spacingAndGlyphs" textLength="30" x="447.5" y="510.1543">Build</text><!--class Phalcon\\Builder\\Controller--><rect fill="#FEFECE" height="32" id="Phalcon\\Builder\\Controller" style="stroke: #A80036; stroke-width: 1.5;" width="93" x="403" y="557"/><ellipse cx="418" cy="573" fill="#ADD1B2" rx="11" ry="11" style="stroke: #A80036; stroke-width: 1.0;"/><path d="M420.9688,578.6406 Q420.3906,578.9375 419.75,579.0781 Q419.1094,579.2344 418.4063,579.2344 Q415.9063,579.2344 414.5781,577.5938 Q413.2656,575.9375 413.2656,572.8125 Q413.2656,569.6875 414.5781,568.0313 Q415.9063,566.375 418.4063,566.375 Q419.1094,566.375 419.75,566.5313 Q420.4063,566.6875 420.9688,566.9844 L420.9688,569.7031 Q420.3438,569.125 419.75,568.8594 Q419.1563,568.5781 418.5313,568.5781 Q417.1875,568.5781 416.5,569.6563 Q415.8125,570.7188 415.8125,572.8125 Q415.8125,574.9063 416.5,575.9844 Q417.1875,577.0469 418.5313,577.0469 Q419.1563,577.0469 419.75,576.7813 Q420.3438,576.5 420.9688,575.9219 L420.9688,578.6406 Z "/><text fill="#000000" font-family="sans-serif" font-size="12" lengthAdjust="spacingAndGlyphs" textLength="61" x="432" y="577.1543">Controller</text><!--class Phalcon\\Builder\\Form--><rect fill="#FEFECE" height="32" id="Phalcon\\Builder\\Form" style="stroke: #A80036; stroke-width: 1.5;" width="63" x="418" y="959"/><ellipse cx="433" cy="975" fill="#ADD1B2" rx="11" ry="11" style="stroke: #A80036; stroke-width: 1.0;"/><path d="M435.9688,980.6406 Q435.3906,980.9375 434.75,981.0781 Q434.1094,981.2344 433.4063,981.2344 Q430.9063,981.2344 429.5781,979.5938 Q428.2656,977.9375 428.2656,974.8125 Q428.2656,971.6875 429.5781,970.0313 Q430.9063,968.375 433.4063,968.375 Q434.1094,968.375 434.75,968.5313 Q435.4063,968.6875 435.9688,968.9844 L435.9688,971.7031 Q435.3438,971.125 434.75,970.8594 Q434.1563,970.5781 433.5313,970.5781 Q432.1875,970.5781 431.5,971.6563 Q430.8125,972.7188 430.8125,974.8125 Q430.8125,976.9063 431.5,977.9844 Q432.1875,979.0469 433.5313,979.0469 Q434.1563,979.0469 434.75,978.7813 Q435.3438,978.5 435.9688,977.9219 L435.9688,980.6406 Z "/><text fill="#000000" font-family="sans-serif" font-size="12" lengthAdjust="spacingAndGlyphs" textLength="31" x="447" y="979.1543">Form</text><!--class Phalcon\\Builder\\Js--><rect fill="#FEFECE" height="32" id="Phalcon\\Builder\\Js" style="stroke: #A80036; stroke-width: 1.5;" width="42" x="428.5" y="624"/><ellipse cx="443.5" cy="640" fill="#ADD1B2" rx="11" ry="11" style="stroke: #A80036; stroke-width: 1.0;"/><path d="M446.4688,645.6406 Q445.8906,645.9375 445.25,646.0781 Q444.6094,646.2344 443.9063,646.2344 Q441.4063,646.2344 440.0781,644.5938 Q438.7656,642.9375 438.7656,639.8125 Q438.7656,636.6875 440.0781,635.0313 Q441.4063,633.375 443.9063,633.375 Q444.6094,633.375 445.25,633.5313 Q445.9063,633.6875 446.4688,633.9844 L446.4688,636.7031 Q445.8438,636.125 445.25,635.8594 Q444.6563,635.5781 444.0313,635.5781 Q442.6875,635.5781 442,636.6563 Q441.3125,637.7188 441.3125,639.8125 Q441.3125,641.9063 442,642.9844 Q442.6875,644.0469 444.0313,644.0469 Q444.6563,644.0469 445.25,643.7813 Q445.8438,643.5 446.4688,642.9219 L446.4688,645.6406 Z "/><text fill="#000000" font-family="sans-serif" font-size="12" lengthAdjust="spacingAndGlyphs" textLength="10" x="457.5" y="644.1543">Js</text><!--class Phalcon\\Builder\\Migration--><rect fill="#FEFECE" height="32" id="Phalcon\\Builder\\Migration" style="stroke: #A80036; stroke-width: 1.5;" width="90" x="404.5" y="691"/><ellipse cx="419.5" cy="707" fill="#ADD1B2" rx="11" ry="11" style="stroke: #A80036; stroke-width: 1.0;"/><path d="M422.4688,712.6406 Q421.8906,712.9375 421.25,713.0781 Q420.6094,713.2344 419.9063,713.2344 Q417.4063,713.2344 416.0781,711.5938 Q414.7656,709.9375 414.7656,706.8125 Q414.7656,703.6875 416.0781,702.0313 Q417.4063,700.375 419.9063,700.375 Q420.6094,700.375 421.25,700.5313 Q421.9063,700.6875 422.4688,700.9844 L422.4688,703.7031 Q421.8438,703.125 421.25,702.8594 Q420.6563,702.5781 420.0313,702.5781 Q418.6875,702.5781 418,703.6563 Q417.3125,704.7188 417.3125,706.8125 Q417.3125,708.9063 418,709.9844 Q418.6875,711.0469 420.0313,711.0469 Q420.6563,711.0469 421.25,710.7813 Q421.8438,710.5 422.4688,709.9219 L422.4688,712.6406 Z "/><text fill="#000000" font-family="sans-serif" font-size="12" lengthAdjust="spacingAndGlyphs" textLength="58" x="433.5" y="711.1543">Migration</text><!--class Phalcon\\Builder\\Model--><rect fill="#FEFECE" height="32" id="Phalcon\\Builder\\Model" style="stroke: #A80036; stroke-width: 1.5;" width="69" x="415" y="758"/><ellipse cx="430" cy="774" fill="#ADD1B2" rx="11" ry="11" style="stroke: #A80036; stroke-width: 1.0;"/><path d="M432.9688,779.6406 Q432.3906,779.9375 431.75,780.0781 Q431.1094,780.2344 430.4063,780.2344 Q427.9063,780.2344 426.5781,778.5938 Q425.2656,776.9375 425.2656,773.8125 Q425.2656,770.6875 426.5781,769.0313 Q427.9063,767.375 430.4063,767.375 Q431.1094,767.375 431.75,767.5313 Q432.4063,767.6875 432.9688,767.9844 L432.9688,770.7031 Q432.3438,770.125 431.75,769.8594 Q431.1563,769.5781 430.5313,769.5781 Q429.1875,769.5781 428.5,770.6563 Q427.8125,771.7188 427.8125,773.8125 Q427.8125,775.9063 428.5,776.9844 Q429.1875,778.0469 430.5313,778.0469 Q431.1563,778.0469 431.75,777.7813 Q432.3438,777.5 432.9688,776.9219 L432.9688,779.6406 Z "/><text fill="#000000" font-family="sans-serif" font-size="12" lengthAdjust="spacingAndGlyphs" textLength="37" x="444" y="778.1543">Model</text><!--class Phalcon\\Builder\\Sass--><rect fill="#FEFECE" height="32" id="Phalcon\\Builder\\Sass" style="stroke: #A80036; stroke-width: 1.5;" width="62" x="418.5" y="825"/><ellipse cx="433.5" cy="841" fill="#ADD1B2" rx="11" ry="11" style="stroke: #A80036; stroke-width: 1.0;"/><path d="M436.4688,846.6406 Q435.8906,846.9375 435.25,847.0781 Q434.6094,847.2344 433.9063,847.2344 Q431.4063,847.2344 430.0781,845.5938 Q428.7656,843.9375 428.7656,840.8125 Q428.7656,837.6875 430.0781,836.0313 Q431.4063,834.375 433.9063,834.375 Q434.6094,834.375 435.25,834.5313 Q435.9063,834.6875 436.4688,834.9844 L436.4688,837.7031 Q435.8438,837.125 435.25,836.8594 Q434.6563,836.5781 434.0313,836.5781 Q432.6875,836.5781 432,837.6563 Q431.3125,838.7188 431.3125,840.8125 Q431.3125,842.9063 432,843.9844 Q432.6875,845.0469 434.0313,845.0469 Q434.6563,845.0469 435.25,844.7813 Q435.8438,844.5 436.4688,843.9219 L436.4688,846.6406 Z "/><text fill="#000000" font-family="sans-serif" font-size="12" lengthAdjust="spacingAndGlyphs" textLength="30" x="447.5" y="845.1543">Sass</text><!--class Phalcon\\Builder\\Scss--><rect fill="#FEFECE" height="32" id="Phalcon\\Builder\\Scss" style="stroke: #A80036; stroke-width: 1.5;" width="61" x="419" y="892"/><ellipse cx="434" cy="908" fill="#ADD1B2" rx="11" ry="11" style="stroke: #A80036; stroke-width: 1.0;"/><path d="M436.9688,913.6406 Q436.3906,913.9375 435.75,914.0781 Q435.1094,914.2344 434.4063,914.2344 Q431.9063,914.2344 430.5781,912.5938 Q429.2656,910.9375 429.2656,907.8125 Q429.2656,904.6875 430.5781,903.0313 Q431.9063,901.375 434.4063,901.375 Q435.1094,901.375 435.75,901.5313 Q436.4063,901.6875 436.9688,901.9844 L436.9688,904.7031 Q436.3438,904.125 435.75,903.8594 Q435.1563,903.5781 434.5313,903.5781 Q433.1875,903.5781 432.5,904.6563 Q431.8125,905.7188 431.8125,907.8125 Q431.8125,909.9063 432.5,910.9844 Q433.1875,912.0469 434.5313,912.0469 Q435.1563,912.0469 435.75,911.7813 Q436.3438,911.5 436.9688,910.9219 L436.9688,913.6406 Z "/><text fill="#000000" font-family="sans-serif" font-size="12" lengthAdjust="spacingAndGlyphs" textLength="29" x="448" y="912.1543">Scss</text><!--class Phalcon\\Builder\\Utils--><rect fill="#FEFECE" height="32" id="Phalcon\\Builder\\Utils" style="stroke: #A80036; stroke-width: 1.5;" width="59" x="420" y="356"/><ellipse cx="435" cy="372" fill="#ADD1B2" rx="11" ry="11" style="stroke: #A80036; stroke-width: 1.0;"/><path d="M437.9688,377.6406 Q437.3906,377.9375 436.75,378.0781 Q436.1094,378.2344 435.4063,378.2344 Q432.9063,378.2344 431.5781,376.5938 Q430.2656,374.9375 430.2656,371.8125 Q430.2656,368.6875 431.5781,367.0313 Q432.9063,365.375 435.4063,365.375 Q436.1094,365.375 436.75,365.5313 Q437.4063,365.6875 437.9688,365.9844 L437.9688,368.7031 Q437.3438,368.125 436.75,367.8594 Q436.1563,367.5781 435.5313,367.5781 Q434.1875,367.5781 433.5,368.6563 Q432.8125,369.7188 432.8125,371.8125 Q432.8125,373.9063 433.5,374.9844 Q434.1875,376.0469 435.5313,376.0469 Q436.1563,376.0469 436.75,375.7813 Q437.3438,375.5 437.9688,374.9219 L437.9688,377.6406 Z "/><text fill="#000000" font-family="sans-serif" font-size="12" lengthAdjust="spacingAndGlyphs" textLength="27" x="449" y="376.1543">Utils</text><!--class Phalcon\\DI\\Injectable--><rect fill="#FEFECE" height="32" id="Phalcon\\DI\\Injectable" style="stroke: #A80036; stroke-width: 1.5;" width="93" x="210.5" y="557"/><ellipse cx="225.5" cy="573" fill="#ADD1B2" rx="11" ry="11" style="stroke: #A80036; stroke-width: 1.0;"/><path d="M228.4688,578.6406 Q227.8906,578.9375 227.25,579.0781 Q226.6094,579.2344 225.9063,579.2344 Q223.4063,579.2344 222.0781,577.5938 Q220.7656,575.9375 220.7656,572.8125 Q220.7656,569.6875 222.0781,568.0313 Q223.4063,566.375 225.9063,566.375 Q226.6094,566.375 227.25,566.5313 Q227.9063,566.6875 228.4688,566.9844 L228.4688,569.7031 Q227.8438,569.125 227.25,568.8594 Q226.6563,568.5781 226.0313,568.5781 Q224.6875,568.5781 224,569.6563 Q223.3125,570.7188 223.3125,572.8125 Q223.3125,574.9063 224,575.9844 Q224.6875,577.0469 226.0313,577.0469 Q226.6563,577.0469 227.25,576.7813 Q227.8438,576.5 228.4688,575.9219 L228.4688,578.6406 Z "/><text fill="#000000" font-family="sans-serif" font-size="12" lengthAdjust="spacingAndGlyphs" textLength="61" x="239.5" y="577.1543">Injectable</text><!--class Phalcon\\Mvc\\Controller--><rect fill="#FEFECE" height="32" id="Phalcon\\Mvc\\Controller" style="stroke: #A80036; stroke-width: 1.5;" width="93" x="38" y="1066"/><ellipse cx="53" cy="1082" fill="#ADD1B2" rx="11" ry="11" style="stroke: #A80036; stroke-width: 1.0;"/><path d="M55.9688,1087.6406 Q55.3906,1087.9375 54.75,1088.0781 Q54.1094,1088.2344 53.4063,1088.2344 Q50.9063,1088.2344 49.5781,1086.5938 Q48.2656,1084.9375 48.2656,1081.8125 Q48.2656,1078.6875 49.5781,1077.0313 Q50.9063,1075.375 53.4063,1075.375 Q54.1094,1075.375 54.75,1075.5313 Q55.4063,1075.6875 55.9688,1075.9844 L55.9688,1078.7031 Q55.3438,1078.125 54.75,1077.8594 Q54.1563,1077.5781 53.5313,1077.5781 Q52.1875,1077.5781 51.5,1078.6563 Q50.8125,1079.7188 50.8125,1081.8125 Q50.8125,1083.9063 51.5,1084.9844 Q52.1875,1086.0469 53.5313,1086.0469 Q54.1563,1086.0469 54.75,1085.7813 Q55.3438,1085.5 55.9688,1084.9219 L55.9688,1087.6406 Z "/><text fill="#000000" font-family="sans-serif" font-size="12" lengthAdjust="spacingAndGlyphs" textLength="61" x="67" y="1086.1543">Controller</text><!--class Phalcon\\Mvc\\Model--><rect fill="#FEFECE" height="32" id="Phalcon\\Mvc\\Model" style="stroke: #A80036; stroke-width: 1.5;" width="69" x="50" y="999"/><ellipse cx="65" cy="1015" fill="#ADD1B2" rx="11" ry="11" style="stroke: #A80036; stroke-width: 1.0;"/><path d="M67.9688,1020.6406 Q67.3906,1020.9375 66.75,1021.0781 Q66.1094,1021.2344 65.4063,1021.2344 Q62.9063,1021.2344 61.5781,1019.5938 Q60.2656,1017.9375 60.2656,1014.8125 Q60.2656,1011.6875 61.5781,1010.0313 Q62.9063,1008.375 65.4063,1008.375 Q66.1094,1008.375 66.75,1008.5313 Q67.4063,1008.6875 67.9688,1008.9844 L67.9688,1011.7031 Q67.3438,1011.125 66.75,1010.8594 Q66.1563,1010.5781 65.5313,1010.5781 Q64.1875,1010.5781 63.5,1011.6563 Q62.8125,1012.7188 62.8125,1014.8125 Q62.8125,1016.9063 63.5,1017.9844 Q64.1875,1019.0469 65.5313,1019.0469 Q66.1563,1019.0469 66.75,1018.7813 Q67.3438,1018.5 67.9688,1017.9219 L67.9688,1020.6406 Z "/><text fill="#000000" font-family="sans-serif" font-size="12" lengthAdjust="spacingAndGlyphs" textLength="37" x="79" y="1019.1543">Model</text><!--class Phalcon\\Forms\\Form--><rect fill="#FEFECE" height="32" id="Phalcon\\Forms\\Form" style="stroke: #A80036; stroke-width: 1.5;" width="63" x="53" y="1186"/><ellipse cx="68" cy="1202" fill="#ADD1B2" rx="11" ry="11" style="stroke: #A80036; stroke-width: 1.0;"/><path d="M70.9688,1207.6406 Q70.3906,1207.9375 69.75,1208.0781 Q69.1094,1208.2344 68.4063,1208.2344 Q65.9063,1208.2344 64.5781,1206.5938 Q63.2656,1204.9375 63.2656,1201.8125 Q63.2656,1198.6875 64.5781,1197.0313 Q65.9063,1195.375 68.4063,1195.375 Q69.1094,1195.375 69.75,1195.5313 Q70.4063,1195.6875 70.9688,1195.9844 L70.9688,1198.7031 Q70.3438,1198.125 69.75,1197.8594 Q69.1563,1197.5781 68.5313,1197.5781 Q67.1875,1197.5781 66.5,1198.6563 Q65.8125,1199.7188 65.8125,1201.8125 Q65.8125,1203.9063 66.5,1204.9844 Q67.1875,1206.0469 68.5313,1206.0469 Q69.1563,1206.0469 69.75,1205.7813 Q70.3438,1205.5 70.9688,1204.9219 L70.9688,1207.6406 Z "/><text fill="#000000" font-family="sans-serif" font-size="12" lengthAdjust="spacingAndGlyphs" textLength="31" x="82" y="1206.1543">Form</text><!--class Phalcon\\Di\\Injectable--><rect fill="#FEFECE" height="32" id="Phalcon\\Di\\Injectable" style="stroke: #A80036; stroke-width: 1.5;" width="93" x="38" y="1293"/><ellipse cx="53" cy="1309" fill="#ADD1B2" rx="11" ry="11" style="stroke: #A80036; stroke-width: 1.0;"/><path d="M55.9688,1314.6406 Q55.3906,1314.9375 54.75,1315.0781 Q54.1094,1315.2344 53.4063,1315.2344 Q50.9063,1315.2344 49.5781,1313.5938 Q48.2656,1311.9375 48.2656,1308.8125 Q48.2656,1305.6875 49.5781,1304.0313 Q50.9063,1302.375 53.4063,1302.375 Q54.1094,1302.375 54.75,1302.5313 Q55.4063,1302.6875 55.9688,1302.9844 L55.9688,1305.7031 Q55.3438,1305.125 54.75,1304.8594 Q54.1563,1304.5781 53.5313,1304.5781 Q52.1875,1304.5781 51.5,1305.6563 Q50.8125,1306.7188 50.8125,1308.8125 Q50.8125,1310.9063 51.5,1311.9844 Q52.1875,1313.0469 53.5313,1313.0469 Q54.1563,1313.0469 54.75,1312.7813 Q55.3438,1312.5 55.9688,1311.9219 L55.9688,1314.6406 Z "/><text fill="#000000" font-family="sans-serif" font-size="12" lengthAdjust="spacingAndGlyphs" textLength="61" x="67" y="1313.1543">Injectable</text><!--class Phalcon\\Tools\\Cli--><rect fill="#FEFECE" height="32" id="Phalcon\\Tools\\Cli" style="stroke: #A80036; stroke-width: 1.5;" width="46" x="61.5" y="233"/><ellipse cx="76.5" cy="249" fill="#ADD1B2" rx="11" ry="11" style="stroke: #A80036; stroke-width: 1.0;"/><path d="M79.4688,254.6406 Q78.8906,254.9375 78.25,255.0781 Q77.6094,255.2344 76.9063,255.2344 Q74.4063,255.2344 73.0781,253.5938 Q71.7656,251.9375 71.7656,248.8125 Q71.7656,245.6875 73.0781,244.0313 Q74.4063,242.375 76.9063,242.375 Q77.6094,242.375 78.25,242.5313 Q78.9063,242.6875 79.4688,242.9844 L79.4688,245.7031 Q78.8438,245.125 78.25,244.8594 Q77.6563,244.5781 77.0313,244.5781 Q75.6875,244.5781 75,245.6563 Q74.3125,246.7188 74.3125,248.8125 Q74.3125,250.9063 75,251.9844 Q75.6875,253.0469 77.0313,253.0469 Q77.6563,253.0469 78.25,252.7813 Q78.8438,252.5 79.4688,251.9219 L79.4688,254.6406 Z "/><text fill="#000000" font-family="sans-serif" font-size="12" lengthAdjust="spacingAndGlyphs" textLength="14" x="90.5" y="253.1543">Cli</text><!--class Manager\\Link--><rect fill="#FEFECE" height="32" id="Manager\\Link" style="stroke: #A80036; stroke-width: 1.5;" width="56" x="56.5" y="59"/><ellipse cx="71.5" cy="75" fill="#ADD1B2" rx="11" ry="11" style="stroke: #A80036; stroke-width: 1.0;"/><path d="M74.4688,80.6406 Q73.8906,80.9375 73.25,81.0781 Q72.6094,81.2344 71.9063,81.2344 Q69.4063,81.2344 68.0781,79.5938 Q66.7656,77.9375 66.7656,74.8125 Q66.7656,71.6875 68.0781,70.0313 Q69.4063,68.375 71.9063,68.375 Q72.6094,68.375 73.25,68.5313 Q73.9063,68.6875 74.4688,68.9844 L74.4688,71.7031 Q73.8438,71.125 73.25,70.8594 Q72.6563,70.5781 72.0313,70.5781 Q70.6875,70.5781 70,71.6563 Q69.3125,72.7188 69.3125,74.8125 Q69.3125,76.9063 70,77.9844 Q70.6875,79.0469 72.0313,79.0469 Q72.6563,79.0469 73.25,78.7813 Q73.8438,78.5 74.4688,77.9219 L74.4688,80.6406 Z "/><text fill="#000000" font-family="sans-serif" font-size="12" lengthAdjust="spacingAndGlyphs" textLength="24" x="85.5" y="79.1543">Link</text><!--class Manager\\User--><rect fill="#FEFECE" height="32" id="Manager\\User" style="stroke: #A80036; stroke-width: 1.5;" width="61" x="54" y="126"/><ellipse cx="69" cy="142" fill="#ADD1B2" rx="11" ry="11" style="stroke: #A80036; stroke-width: 1.0;"/><path d="M71.9688,147.6406 Q71.3906,147.9375 70.75,148.0781 Q70.1094,148.2344 69.4063,148.2344 Q66.9063,148.2344 65.5781,146.5938 Q64.2656,144.9375 64.2656,141.8125 Q64.2656,138.6875 65.5781,137.0313 Q66.9063,135.375 69.4063,135.375 Q70.1094,135.375 70.75,135.5313 Q71.4063,135.6875 71.9688,135.9844 L71.9688,138.7031 Q71.3438,138.125 70.75,137.8594 Q70.1563,137.5781 69.5313,137.5781 Q68.1875,137.5781 67.5,138.6563 Q66.8125,139.7188 66.8125,141.8125 Q66.8125,143.9063 67.5,144.9844 Q68.1875,146.0469 69.5313,146.0469 Q70.1563,146.0469 70.75,145.7813 Q71.3438,145.5 71.9688,144.9219 L71.9688,147.6406 Z "/><text fill="#000000" font-family="sans-serif" font-size="12" lengthAdjust="spacingAndGlyphs" textLength="29" x="83" y="146.1543">User</text><!--class ApiController--><rect fill="#FEFECE" height="32" id="ApiController" style="stroke: #A80036; stroke-width: 1.5;" width="112" x="393.5" y="1026"/><ellipse cx="408.5" cy="1042" fill="#ADD1B2" rx="11" ry="11" style="stroke: #A80036; stroke-width: 1.0;"/><path d="M411.4688,1047.6406 Q410.8906,1047.9375 410.25,1048.0781 Q409.6094,1048.2344 408.9063,1048.2344 Q406.4063,1048.2344 405.0781,1046.5938 Q403.7656,1044.9375 403.7656,1041.8125 Q403.7656,1038.6875 405.0781,1037.0313 Q406.4063,1035.375 408.9063,1035.375 Q409.6094,1035.375 410.25,1035.5313 Q410.9063,1035.6875 411.4688,1035.9844 L411.4688,1038.7031 Q410.8438,1038.125 410.25,1037.8594 Q409.6563,1037.5781 409.0313,1037.5781 Q407.6875,1037.5781 407,1038.6563 Q406.3125,1039.7188 406.3125,1041.8125 Q406.3125,1043.9063 407,1044.9844 Q407.6875,1046.0469 409.0313,1046.0469 Q409.6563,1046.0469 410.25,1045.7813 Q410.8438,1045.5 411.4688,1044.9219 L411.4688,1047.6406 Z "/><text fill="#000000" font-family="sans-serif" font-size="12" lengthAdjust="spacingAndGlyphs" textLength="80" x="422.5" y="1046.1543">ApiController</text><!--class ScrudController--><rect fill="#FEFECE" height="32" id="ScrudController" style="stroke: #A80036; stroke-width: 1.5;" width="129" x="385" y="1093"/><ellipse cx="400" cy="1109" fill="#ADD1B2" rx="11" ry="11" style="stroke: #A80036; stroke-width: 1.0;"/><path d="M402.9688,1114.6406 Q402.3906,1114.9375 401.75,1115.0781 Q401.1094,1115.2344 400.4063,1115.2344 Q397.9063,1115.2344 396.5781,1113.5938 Q395.2656,1111.9375 395.2656,1108.8125 Q395.2656,1105.6875 396.5781,1104.0313 Q397.9063,1102.375 400.4063,1102.375 Q401.1094,1102.375 401.75,1102.5313 Q402.4063,1102.6875 402.9688,1102.9844 L402.9688,1105.7031 Q402.3438,1105.125 401.75,1104.8594 Q401.1563,1104.5781 400.5313,1104.5781 Q399.1875,1104.5781 398.5,1105.6563 Q397.8125,1106.7188 397.8125,1108.8125 Q397.8125,1110.9063 398.5,1111.9844 Q399.1875,1113.0469 400.5313,1113.0469 Q401.1563,1113.0469 401.75,1112.7813 Q402.3438,1112.5 402.9688,1111.9219 L402.9688,1114.6406 Z "/><text fill="#000000" font-family="sans-serif" font-size="12" lengthAdjust="spacingAndGlyphs" textLength="97" x="414" y="1113.1543">ScrudController</text><!--class Rest--><rect fill="#FEFECE" height="32" id="Rest" style="stroke: #A80036; stroke-width: 1.5;" width="60" x="54.5" y="641"/><ellipse cx="69.5" cy="657" fill="#ADD1B2" rx="11" ry="11" style="stroke: #A80036; stroke-width: 1.0;"/><path d="M72.4688,662.6406 Q71.8906,662.9375 71.25,663.0781 Q70.6094,663.2344 69.9063,663.2344 Q67.4063,663.2344 66.0781,661.5938 Q64.7656,659.9375 64.7656,656.8125 Q64.7656,653.6875 66.0781,652.0313 Q67.4063,650.375 69.9063,650.375 Q70.6094,650.375 71.25,650.5313 Q71.9063,650.6875 72.4688,650.9844 L72.4688,653.7031 Q71.8438,653.125 71.25,652.8594 Q70.6563,652.5781 70.0313,652.5781 Q68.6875,652.5781 68,653.6563 Q67.3125,654.7188 67.3125,656.8125 Q67.3125,658.9063 68,659.9844 Q68.6875,661.0469 70.0313,661.0469 Q70.6563,661.0469 71.25,660.7813 Q71.8438,660.5 72.4688,659.9219 L72.4688,662.6406 Z "/><text fill="#000000" font-family="sans-serif" font-size="12" lengthAdjust="spacingAndGlyphs" textLength="28" x="83.5" y="661.1543">Rest</text><!--class DataTask--><rect fill="#FEFECE" height="32" id="DataTask" style="stroke: #A80036; stroke-width: 1.5;" width="91" x="211.5" y="206"/><ellipse cx="226.5" cy="222" fill="#ADD1B2" rx="11" ry="11" style="stroke: #A80036; stroke-width: 1.0;"/><path d="M229.4688,227.6406 Q228.8906,227.9375 228.25,228.0781 Q227.6094,228.2344 226.9063,228.2344 Q224.4063,228.2344 223.0781,226.5938 Q221.7656,224.9375 221.7656,221.8125 Q221.7656,218.6875 223.0781,217.0313 Q224.4063,215.375 226.9063,215.375 Q227.6094,215.375 228.25,215.5313 Q228.9063,215.6875 229.4688,215.9844 L229.4688,218.7031 Q228.8438,218.125 228.25,217.8594 Q227.6563,217.5781 227.0313,217.5781 Q225.6875,217.5781 225,218.6563 Q224.3125,219.7188 224.3125,221.8125 Q224.3125,223.9063 225,224.9844 Q225.6875,226.0469 227.0313,226.0469 Q227.6563,226.0469 228.25,225.7813 Q228.8438,225.5 229.4688,224.9219 L229.4688,227.6406 Z "/><text fill="#000000" font-family="sans-serif" font-size="12" lengthAdjust="spacingAndGlyphs" textLength="59" x="240.5" y="226.1543">DataTask</text><!--class GenerateTask--><rect fill="#FEFECE" height="32" id="GenerateTask" style="stroke: #A80036; stroke-width: 1.5;" width="120" x="581" y="423"/><ellipse cx="596" cy="439" fill="#ADD1B2" rx="11" ry="11" style="stroke: #A80036; stroke-width: 1.0;"/><path d="M598.9688,444.6406 Q598.3906,444.9375 597.75,445.0781 Q597.1094,445.2344 596.4063,445.2344 Q593.9063,445.2344 592.5781,443.5938 Q591.2656,441.9375 591.2656,438.8125 Q591.2656,435.6875 592.5781,434.0313 Q593.9063,432.375 596.4063,432.375 Q597.1094,432.375 597.75,432.5313 Q598.4063,432.6875 598.9688,432.9844 L598.9688,435.7031 Q598.3438,435.125 597.75,434.8594 Q597.1563,434.5781 596.5313,434.5781 Q595.1875,434.5781 594.5,435.6563 Q593.8125,436.7188 593.8125,438.8125 Q593.8125,440.9063 594.5,441.9844 Q595.1875,443.0469 596.5313,443.0469 Q597.1563,443.0469 597.75,442.7813 Q598.3438,442.5 598.9688,441.9219 L598.9688,444.6406 Z "/><text fill="#000000" font-family="sans-serif" font-size="12" lengthAdjust="spacingAndGlyphs" textLength="88" x="610" y="443.1543">GenerateTask</text><!--class MessageTask--><rect fill="#FEFECE" height="32" id="MessageTask" style="stroke: #A80036; stroke-width: 1.5;" width="117" x="198.5" y="273"/><ellipse cx="213.5" cy="289" fill="#ADD1B2" rx="11" ry="11" style="stroke: #A80036; stroke-width: 1.0;"/><path d="M216.4688,294.6406 Q215.8906,294.9375 215.25,295.0781 Q214.6094,295.2344 213.9063,295.2344 Q211.4063,295.2344 210.0781,293.5938 Q208.7656,291.9375 208.7656,288.8125 Q208.7656,285.6875 210.0781,284.0313 Q211.4063,282.375 213.9063,282.375 Q214.6094,282.375 215.25,282.5313 Q215.9063,282.6875 216.4688,282.9844 L216.4688,285.7031 Q215.8438,285.125 215.25,284.8594 Q214.6563,284.5781 214.0313,284.5781 Q212.6875,284.5781 212,285.6563 Q211.3125,286.7188 211.3125,288.8125 Q211.3125,290.9063 212,291.9844 Q212.6875,293.0469 214.0313,293.0469 Q214.6563,293.0469 215.25,292.7813 Q215.8438,292.5 216.4688,291.9219 L216.4688,294.6406 Z "/><text fill="#000000" font-family="sans-serif" font-size="12" lengthAdjust="spacingAndGlyphs" textLength="85" x="227.5" y="293.1543">MessageTask</text><!--class MigrationTask--><rect fill="#FEFECE" height="32" id="MigrationTask" style="stroke: #A80036; stroke-width: 1.5;" width="119" x="197.5" y="340"/><ellipse cx="212.5" cy="356" fill="#ADD1B2" rx="11" ry="11" style="stroke: #A80036; stroke-width: 1.0;"/><path d="M215.4688,361.6406 Q214.8906,361.9375 214.25,362.0781 Q213.6094,362.2344 212.9063,362.2344 Q210.4063,362.2344 209.0781,360.5938 Q207.7656,358.9375 207.7656,355.8125 Q207.7656,352.6875 209.0781,351.0313 Q210.4063,349.375 212.9063,349.375 Q213.6094,349.375 214.25,349.5313 Q214.9063,349.6875 215.4688,349.9844 L215.4688,352.7031 Q214.8438,352.125 214.25,351.8594 Q213.6563,351.5781 213.0313,351.5781 Q211.6875,351.5781 211,352.6563 Q210.3125,353.7188 210.3125,355.8125 Q210.3125,357.9063 211,358.9844 Q211.6875,360.0469 213.0313,360.0469 Q213.6563,360.0469 214.25,359.7813 Q214.8438,359.5 215.4688,358.9219 L215.4688,361.6406 Z "/><text fill="#000000" font-family="sans-serif" font-size="12" lengthAdjust="spacingAndGlyphs" textLength="87" x="226.5" y="360.1543">MigrationTask</text><!--class ModelsTask--><rect fill="#FEFECE" height="32" id="ModelsTask" style="stroke: #A80036; stroke-width: 1.5;" width="105" x="204.5" y="407"/><ellipse cx="219.5" cy="423" fill="#ADD1B2" rx="11" ry="11" style="stroke: #A80036; stroke-width: 1.0;"/><path d="M222.4688,428.6406 Q221.8906,428.9375 221.25,429.0781 Q220.6094,429.2344 219.9063,429.2344 Q217.4063,429.2344 216.0781,427.5938 Q214.7656,425.9375 214.7656,422.8125 Q214.7656,419.6875 216.0781,418.0313 Q217.4063,416.375 219.9063,416.375 Q220.6094,416.375 221.25,416.5313 Q221.9063,416.6875 222.4688,416.9844 L222.4688,419.7031 Q221.8438,419.125 221.25,418.8594 Q220.6563,418.5781 220.0313,418.5781 Q218.6875,418.5781 218,419.6563 Q217.3125,420.7188 217.3125,422.8125 Q217.3125,424.9063 218,425.9844 Q218.6875,427.0469 220.0313,427.0469 Q220.6563,427.0469 221.25,426.7813 Q221.8438,426.5 222.4688,425.9219 L222.4688,428.6406 Z "/><text fill="#000000" font-family="sans-serif" font-size="12" lengthAdjust="spacingAndGlyphs" textLength="73" x="233.5" y="427.1543">ModelsTask</text><!--class ReleaseTask--><rect fill="#FEFECE" height="32" id="ReleaseTask" style="stroke: #A80036; stroke-width: 1.5;" width="111" x="201.5" y="474"/><ellipse cx="216.5" cy="490" fill="#ADD1B2" rx="11" ry="11" style="stroke: #A80036; stroke-width: 1.0;"/><path d="M219.4688,495.6406 Q218.8906,495.9375 218.25,496.0781 Q217.6094,496.2344 216.9063,496.2344 Q214.4063,496.2344 213.0781,494.5938 Q211.7656,492.9375 211.7656,489.8125 Q211.7656,486.6875 213.0781,485.0313 Q214.4063,483.375 216.9063,483.375 Q217.6094,483.375 218.25,483.5313 Q218.9063,483.6875 219.4688,483.9844 L219.4688,486.7031 Q218.8438,486.125 218.25,485.8594 Q217.6563,485.5781 217.0313,485.5781 Q215.6875,485.5781 215,486.6563 Q214.3125,487.7188 214.3125,489.8125 Q214.3125,491.9063 215,492.9844 Q215.6875,494.0469 217.0313,494.0469 Q217.6563,494.0469 218.25,493.7813 Q218.8438,493.5 219.4688,492.9219 L219.4688,495.6406 Z "/><text fill="#000000" font-family="sans-serif" font-size="12" lengthAdjust="spacingAndGlyphs" textLength="79" x="230.5" y="494.1543">ReleaseTask</text><!--class IndexController--><rect fill="#FEFECE" height="32" id="IndexController" style="stroke: #A80036; stroke-width: 1.5;" width="126" x="386.5" y="1160"/><ellipse cx="401.5" cy="1176" fill="#ADD1B2" rx="11" ry="11" style="stroke: #A80036; stroke-width: 1.0;"/><path d="M404.4688,1181.6406 Q403.8906,1181.9375 403.25,1182.0781 Q402.6094,1182.2344 401.9063,1182.2344 Q399.4063,1182.2344 398.0781,1180.5938 Q396.7656,1178.9375 396.7656,1175.8125 Q396.7656,1172.6875 398.0781,1171.0313 Q399.4063,1169.375 401.9063,1169.375 Q402.6094,1169.375 403.25,1169.5313 Q403.9063,1169.6875 404.4688,1169.9844 L404.4688,1172.7031 Q403.8438,1172.125 403.25,1171.8594 Q402.6563,1171.5781 402.0313,1171.5781 Q400.6875,1171.5781 400,1172.6563 Q399.3125,1173.7188 399.3125,1175.8125 Q399.3125,1177.9063 400,1178.9844 Q400.6875,1180.0469 402.0313,1180.0469 Q402.6563,1180.0469 403.25,1179.7813 Q403.8438,1179.5 404.4688,1178.9219 L404.4688,1181.6406 Z "/><text fill="#000000" font-family="sans-serif" font-size="12" lengthAdjust="spacingAndGlyphs" textLength="94" x="415.5" y="1180.1543">IndexController</text><!--class UserController--><rect fill="#FEFECE" height="32" id="UserController" style="stroke: #A80036; stroke-width: 1.5;" width="122" x="388.5" y="1227"/><ellipse cx="403.5" cy="1243" fill="#ADD1B2" rx="11" ry="11" style="stroke: #A80036; stroke-width: 1.0;"/><path d="M406.4688,1248.6406 Q405.8906,1248.9375 405.25,1249.0781 Q404.6094,1249.2344 403.9063,1249.2344 Q401.4063,1249.2344 400.0781,1247.5938 Q398.7656,1245.9375 398.7656,1242.8125 Q398.7656,1239.6875 400.0781,1238.0313 Q401.4063,1236.375 403.9063,1236.375 Q404.6094,1236.375 405.25,1236.5313 Q405.9063,1236.6875 406.4688,1236.9844 L406.4688,1239.7031 Q405.8438,1239.125 405.25,1238.8594 Q404.6563,1238.5781 404.0313,1238.5781 Q402.6875,1238.5781 402,1239.6563 Q401.3125,1240.7188 401.3125,1242.8125 Q401.3125,1244.9063 402,1245.9844 Q402.6875,1247.0469 404.0313,1247.0469 Q404.6563,1247.0469 405.25,1246.7813 Q405.8438,1246.5 406.4688,1245.9219 L406.4688,1248.6406 Z "/><text fill="#000000" font-family="sans-serif" font-size="12" lengthAdjust="spacingAndGlyphs" textLength="90" x="417.5" y="1247.1543">UserController</text><!--class UserForm--><rect fill="#FEFECE" height="32" id="UserForm" style="stroke: #A80036; stroke-width: 1.5;" width="92" x="403.5" y="1294"/><ellipse cx="418.5" cy="1310" fill="#ADD1B2" rx="11" ry="11" style="stroke: #A80036; stroke-width: 1.0;"/><path d="M421.4688,1315.6406 Q420.8906,1315.9375 420.25,1316.0781 Q419.6094,1316.2344 418.9063,1316.2344 Q416.4063,1316.2344 415.0781,1314.5938 Q413.7656,1312.9375 413.7656,1309.8125 Q413.7656,1306.6875 415.0781,1305.0313 Q416.4063,1303.375 418.9063,1303.375 Q419.6094,1303.375 420.25,1303.5313 Q420.9063,1303.6875 421.4688,1303.9844 L421.4688,1306.7031 Q420.8438,1306.125 420.25,1305.8594 Q419.6563,1305.5781 419.0313,1305.5781 Q417.6875,1305.5781 417,1306.6563 Q416.3125,1307.7188 416.3125,1309.8125 Q416.3125,1311.9063 417,1312.9844 Q417.6875,1314.0469 419.0313,1314.0469 Q419.6563,1314.0469 420.25,1313.7813 Q420.8438,1313.5 421.4688,1312.9219 L421.4688,1315.6406 Z "/><text fill="#000000" font-family="sans-serif" font-size="12" lengthAdjust="spacingAndGlyphs" textLength="60" x="432.5" y="1314.1543">UserForm</text><!--class AssetsPlugin--><rect fill="#FEFECE" height="32" id="AssetsPlugin" style="stroke: #A80036; stroke-width: 1.5;" width="112" x="393.5" y="206"/><ellipse cx="408.5" cy="222" fill="#ADD1B2" rx="11" ry="11" style="stroke: #A80036; stroke-width: 1.0;"/><path d="M411.4688,227.6406 Q410.8906,227.9375 410.25,228.0781 Q409.6094,228.2344 408.9063,228.2344 Q406.4063,228.2344 405.0781,226.5938 Q403.7656,224.9375 403.7656,221.8125 Q403.7656,218.6875 405.0781,217.0313 Q406.4063,215.375 408.9063,215.375 Q409.6094,215.375 410.25,215.5313 Q410.9063,215.6875 411.4688,215.9844 L411.4688,218.7031 Q410.8438,218.125 410.25,217.8594 Q409.6563,217.5781 409.0313,217.5781 Q407.6875,217.5781 407,218.6563 Q406.3125,219.7188 406.3125,221.8125 Q406.3125,223.9063 407,224.9844 Q407.6875,226.0469 409.0313,226.0469 Q409.6563,226.0469 410.25,225.7813 Q410.8438,225.5 411.4688,224.9219 L411.4688,227.6406 Z "/><text fill="#000000" font-family="sans-serif" font-size="12" lengthAdjust="spacingAndGlyphs" textLength="80" x="422.5" y="226.1543">AssetsPlugin</text><!--class SecurityPlugin--><rect fill="#FEFECE" height="32" id="SecurityPlugin" style="stroke: #A80036; stroke-width: 1.5;" width="120" x="389.5" y="273"/><ellipse cx="404.5" cy="289" fill="#ADD1B2" rx="11" ry="11" style="stroke: #A80036; stroke-width: 1.0;"/><path d="M407.4688,294.6406 Q406.8906,294.9375 406.25,295.0781 Q405.6094,295.2344 404.9063,295.2344 Q402.4063,295.2344 401.0781,293.5938 Q399.7656,291.9375 399.7656,288.8125 Q399.7656,285.6875 401.0781,284.0313 Q402.4063,282.375 404.9063,282.375 Q405.6094,282.375 406.25,282.5313 Q406.9063,282.6875 407.4688,282.9844 L407.4688,285.7031 Q406.8438,285.125 406.25,284.8594 Q405.6563,284.5781 405.0313,284.5781 Q403.6875,284.5781 403,285.6563 Q402.3125,286.7188 402.3125,288.8125 Q402.3125,290.9063 403,291.9844 Q403.6875,293.0469 405.0313,293.0469 Q405.6563,293.0469 406.25,292.7813 Q406.8438,292.5 407.4688,291.9219 L407.4688,294.6406 Z "/><text fill="#000000" font-family="sans-serif" font-size="12" lengthAdjust="spacingAndGlyphs" textLength="88" x="418.5" y="293.1543">SecurityPlugin</text><!--link Phalcon\\ControllerBase to ApiController--><path d="M292,1105.9 C292,1105.9 292,1044.5 292,1044.5 C292,1044.5 347.89,1044.5 393.08,1044.5 " fill="none" id="Phalcon\\ControllerBase-ApiController" style="stroke: #516F42; stroke-width: 1.0;"/><polygon fill="none" points="299,1105.9,292,1125.9,285,1105.9,299,1105.9" style="stroke: #516F42; stroke-width: 1.0;"/><!--link Phalcon\\ControllerBase to ScrudController--><path d="M300,1112.92 C300,1112.92 300,1111.5 300,1111.5 C300,1111.5 344.39,1111.5 384.8,1111.5 " fill="none" id="Phalcon\\ControllerBase-ScrudController" style="stroke: #516F42; stroke-width: 1.0;"/><polygon fill="none" points="307,1105.68,300,1125.68,293,1105.68,307,1105.68" style="stroke: #516F42; stroke-width: 1.0;"/><!--link Phalcon\\CLI\\Task to DataTask--><path d="M110,319.81 C110,319.81 110,219.5 110,219.5 C110,219.5 168.14,219.5 211.29,219.5 " fill="none" id="Phalcon\\CLI\\Task-DataTask" style="stroke: #516F42; stroke-width: 1.0;"/><polygon fill="none" points="117,319.81,110,339.81,103,319.81,117,319.81" style="stroke: #516F42; stroke-width: 1.0;"/><!--link Phalcon\\Builder\\Task to GenerateTask--><path d="M500.27,439 C500.27,439 580.93,439 580.93,439 " fill="none" id="Phalcon\\Builder\\Task-GenerateTask" style="stroke: #516F42; stroke-width: 1.0;"/><polygon fill="none" points="500.27,446,480.27,439,500.27,432,500.27,446" style="stroke: #516F42; stroke-width: 1.0;"/><!--link Phalcon\\CLI\\Task to MessageTask--><path d="M113,319.78 C113,319.78 113,289 113,289 C113,289 158.56,289 198.43,289 " fill="none" id="Phalcon\\CLI\\Task-MessageTask" style="stroke: #516F42; stroke-width: 1.0;"/><polygon fill="none" points="120,319.78,113,339.78,106,319.78,120,319.78" style="stroke: #516F42; stroke-width: 1.0;"/><!--link Phalcon\\CLI\\Task to MigrationTask--><path d="M135.34,356 C135.34,356 197.47,356 197.47,356 " fill="none" id="Phalcon\\CLI\\Task-MigrationTask" style="stroke: #516F42; stroke-width: 1.0;"/><polygon fill="none" points="135.34,363,115.34,356,135.34,349,135.34,363" style="stroke: #516F42; stroke-width: 1.0;"/><!--link Phalcon\\CLI\\Task to ModelsTask--><path d="M95,392.22 C95,392.22 95,423 95,423 C95,423 157.1,423 204.4,423 " fill="none" id="Phalcon\\CLI\\Task-ModelsTask" style="stroke: #516F42; stroke-width: 1.0;"/><polygon fill="none" points="88,392.22,95,372.22,102,392.22,88,392.22" style="stroke: #516F42; stroke-width: 1.0;"/><!--link Phalcon\\CLI\\Task to ReleaseTask--><path d="M75,392.16 C75,392.16 75,490 75,490 C75,490 147.88,490 201.41,490 " fill="none" id="Phalcon\\CLI\\Task-ReleaseTask" style="stroke: #516F42; stroke-width: 1.0;"/><polygon fill="none" points="68,392.16,75,372.16,82,392.16,68,392.16" style="stroke: #516F42; stroke-width: 1.0;"/><!--link Phalcon\\ControllerBase to IndexController--><path d="M314,1171.52 C314,1171.52 314,1173 314,1173 C314,1173 350.85,1173 386.11,1173 " fill="none" id="Phalcon\\ControllerBase-IndexController" style="stroke: #516F42; stroke-width: 1.0;"/><polygon fill="none" points="307,1178.23,314,1158.23,321,1178.23,307,1178.23" style="stroke: #516F42; stroke-width: 1.0;"/><!--link Phalcon\\ControllerBase to UserController--><path d="M309,1178.23 C309,1178.23 309,1243 309,1243 C309,1243 350.42,1243 388.28,1243 " fill="none" id="Phalcon\\ControllerBase-UserController" style="stroke: #516F42; stroke-width: 1.0;"/><polygon fill="none" points="302,1178.23,309,1158.23,316,1178.23,302,1178.23" style="stroke: #516F42; stroke-width: 1.0;"/><!--link Phalcon\\FormBase to UserForm--><path d="M299,1245.15 C299,1245.15 299,1309.5 299,1309.5 C299,1309.5 358.9,1309.5 403.12,1309.5 " fill="none" id="Phalcon\\FormBase-UserForm" style="stroke: #516F42; stroke-width: 1.0;"/><polygon fill="none" points="292,1245.15,299,1225.15,306,1245.15,292,1245.15" style="stroke: #516F42; stroke-width: 1.0;"/><!--link Phalcon\\DI\\Injectable to AssetsPlugin--><path d="M323.91,562.33 C323.91,562.33 341,562.33 341,562.33 C341,562.33 341,222 341,222 C341,222 366.87,222 393.34,222 " fill="none" id="Phalcon\\DI\\Injectable-AssetsPlugin" style="stroke: #516F42; stroke-width: 1.0;"/><polygon fill="none" points="323.91,569.33,303.91,562.33,323.91,555.33,323.91,569.33" style="stroke: #516F42; stroke-width: 1.0;"/><!--link Phalcon\\DI\\Injectable to SecurityPlugin--><path d="M323.67,567.67 C323.67,567.67 396,567.67 396,567.67 C396,567.67 396,364.66 396,305.19 " fill="none" id="Phalcon\\DI\\Injectable-SecurityPlugin" style="stroke: #516F42; stroke-width: 1.0;"/><polygon fill="none" points="323.67,574.67,303.67,567.67,323.67,560.67,323.67,574.67" style="stroke: #516F42; stroke-width: 1.0;"/><!--link Phalcon\\Mvc\\Controller to Phalcon\\ControllerBase--><path d="M121,1118.08 C121,1118.08 121,1142 121,1142 C121,1142 159.1,1142 194.97,1142 " fill="none" id="Phalcon\\Mvc\\Controller-Phalcon\\ControllerBase" style="stroke: #516F42; stroke-width: 1.0;"/><polygon fill="none" points="114,1118.08,121,1098.08,128,1118.08,114,1118.08" style="stroke: #516F42; stroke-width: 1.0;"/><!--link Phalcon\\Forms\\Form to Phalcon\\FormBase--><path d="M136.14,1205.5 C136.14,1205.5 209.94,1205.5 209.94,1205.5 " fill="none" id="Phalcon\\Forms\\Form-Phalcon\\FormBase" style="stroke: #516F42; stroke-width: 1.0;"/><polygon fill="none" points="136.14,1212.5,116.14,1205.5,136.14,1198.5,136.14,1212.5" style="stroke: #516F42; stroke-width: 1.0;"/><!--link Phalcon\\Di\\Injectable to Phalcon\\Library--><path d="M126,1277.69 C126,1277.69 126,1276 126,1276 C126,1276 181.41,1276 220.16,1276 " fill="none" id="Phalcon\\Di\\Injectable-Phalcon\\Library" style="stroke: #516F42; stroke-width: 1.0;"/><polygon fill="none" points="133,1272.89,126,1292.89,119,1272.89,133,1272.89" style="stroke: #516F42; stroke-width: 1.0;"/><!--link Phalcon\\Mvc\\Model to Phalcon\\ModelBase--><path d="M139.41,1011.5 C139.41,1011.5 206.78,1011.5 206.78,1011.5 " fill="none" id="Phalcon\\Mvc\\Model-Phalcon\\ModelBase" style="stroke: #516F42; stroke-width: 1.0;"/><polygon fill="none" points="139.41,1018.5,119.41,1011.5,139.41,1004.5,139.41,1018.5" style="stroke: #516F42; stroke-width: 1.0;"/><!--link Phalcon\\DI\\Injectable to Phalcon\\Builder\\Build--><path d="M257,536.88 C257,536.88 257,514 257,514 C257,514 363.6,514 418.14,514 " fill="none" id="Phalcon\\DI\\Injectable-Phalcon\\Builder\\Build" style="stroke: #516F42; stroke-width: 1.0;"/><polygon fill="none" points="264,536.88,257,556.88,250,536.88,264,536.88" style="stroke: #516F42; stroke-width: 1.0;"/><!--link Phalcon\\DI\\Injectable to Phalcon\\Builder\\Controller--><path d="M323.6,583.67 C323.6,583.67 403,583.67 403,583.67 " fill="none" id="Phalcon\\DI\\Injectable-Phalcon\\Builder\\Controller" style="stroke: #516F42; stroke-width: 1.0;"/><polygon fill="none" points="323.6,590.67,303.6,583.67,323.6,576.67,323.6,590.67" style="stroke: #516F42; stroke-width: 1.0;"/><!--link Phalcon\\Tag to Phalcon\\Builder\\Form--><path d="M304.57,1075 C304.57,1075 363,1075 363,1075 C363,1075 363,975 363,975 C363,975 393.09,975 417.78,975 " fill="none" id="Phalcon\\Tag-Phalcon\\Builder\\Form" style="stroke: #516F42; stroke-width: 1.0;"/><polygon fill="none" points="304.57,1082,284.57,1075,304.57,1068,304.57,1082" style="stroke: #516F42; stroke-width: 1.0;"/><!--link Phalcon\\DI\\Injectable to Phalcon\\Builder\\Js--><path d="M288,609.26 C288,609.26 288,632.5 288,632.5 C288,632.5 384.61,632.5 428.39,632.5 " fill="none" id="Phalcon\\DI\\Injectable-Phalcon\\Builder\\Js" style="stroke: #516F42; stroke-width: 1.0;"/><polygon fill="none" points="281,609.26,288,589.26,295,609.26,281,609.26" style="stroke: #516F42; stroke-width: 1.0;"/><!--link Phalcon\\DI\\Injectable to Phalcon\\Builder\\Migration--><path d="M273,609.16 C273,609.16 273,707 273,707 C273,707 351.75,707 404.05,707 " fill="none" id="Phalcon\\DI\\Injectable-Phalcon\\Builder\\Migration" style="stroke: #516F42; stroke-width: 1.0;"/><polygon fill="none" points="266,609.16,273,589.16,280,609.16,266,609.16" style="stroke: #516F42; stroke-width: 1.0;"/><!--link Phalcon\\DI\\Injectable to Phalcon\\Builder\\Model--><path d="M257,609.11 C257,609.11 257,774 257,774 C257,774 359.17,774 414.64,774 " fill="none" id="Phalcon\\DI\\Injectable-Phalcon\\Builder\\Model" style="stroke: #516F42; stroke-width: 1.0;"/><polygon fill="none" points="250,609.11,257,589.11,264,609.11,250,609.11" style="stroke: #516F42; stroke-width: 1.0;"/><!--link Phalcon\\DI\\Injectable to Phalcon\\Builder\\Sass--><path d="M242,609.36 C242,609.36 242,841 242,841 C242,841 360.55,841 418.44,841 " fill="none" id="Phalcon\\DI\\Injectable-Phalcon\\Builder\\Sass" style="stroke: #516F42; stroke-width: 1.0;"/><polygon fill="none" points="235,609.36,242,589.36,249,609.36,235,609.36" style="stroke: #516F42; stroke-width: 1.0;"/><!--link Phalcon\\DI\\Injectable to Phalcon\\Builder\\Scss--><path d="M226,609.16 C226,609.16 226,908 226,908 C226,908 357.68,908 418.89,908 " fill="none" id="Phalcon\\DI\\Injectable-Phalcon\\Builder\\Scss" style="stroke: #516F42; stroke-width: 1.0;"/><polygon fill="none" points="219,609.16,226,589.16,233,609.16,219,609.16" style="stroke: #516F42; stroke-width: 1.0;"/><!--link Phalcon\\DI\\Injectable to Phalcon\\Builder\\Task--><path d="M323.75,578.33 C323.75,578.33 401,578.33 401,578.33 C401,578.33 401,447 401,447 C401,447 409.16,447 418.78,447 " fill="none" id="Phalcon\\DI\\Injectable-Phalcon\\Builder\\Task" style="stroke: #516F42; stroke-width: 1.0;"/><polygon fill="none" points="323.75,585.33,303.75,578.33,323.75,571.33,323.75,585.33" style="stroke: #516F42; stroke-width: 1.0;"/><!--link Phalcon\\DI\\Injectable to Phalcon\\Builder\\Utils--><path d="M323.89,573 C323.89,573 399,573 399,573 C399,573 399,380 399,380 C399,380 408.84,380 419.83,380 " fill="none" id="Phalcon\\DI\\Injectable-Phalcon\\Builder\\Utils" style="stroke: #516F42; stroke-width: 1.0;"/><polygon fill="none" points="323.89,580,303.89,573,323.89,566,323.89,580" style="stroke: #516F42; stroke-width: 1.0;"/><!--
@startuml
   skinparam ArrowColor #516f42
   skinparam activityBorderColor #516f42
   skinparam activityBackgroundColor #ffffff
   skinparam activityDiamondBorderColor #516f42
   skinparam activityDiamondBackgroundColor #ffffff
   skinparam shadowing false

skinparam shadowing false
skinparam linetype ortho
hide empty members
left to right direction
set namespaceSeparator \\


class \\ApiController extends \\Phalcon\\ControllerBase {
}

class \\ScrudController extends \\Phalcon\\ControllerBase {
}

class \\Rest {
}

class \\DataTask extends \\Phalcon\\CLI\\Task {
}

class \\GenerateTask extends \\Phalcon\\Builder\\Task {
}

class \\MessageTask extends \\Phalcon\\CLI\\Task {
}

class \\MigrationTask extends \\Phalcon\\CLI\\Task {
}

class \\ModelsTask extends \\Phalcon\\CLI\\Task {
}

class \\ReleaseTask extends \\Phalcon\\CLI\\Task {
}

class \\IndexController extends \\Phalcon\\ControllerBase {
}

class \\UserController extends \\Phalcon\\ControllerBase {
}

class \\UserForm extends \\Phalcon\\FormBase {
}

class \\AssetsPlugin extends \\Phalcon\\DI\\Injectable {
}

class \\SecurityPlugin extends \\Phalcon\\DI\\Injectable {
}

class \\Phalcon\\ControllerBase extends \\Phalcon\\Mvc\\Controller {
}

class \\Phalcon\\FormBase extends \\Phalcon\\Forms\\Form {
}

class \\Phalcon\\Library extends \\Phalcon\\Di\\Injectable {
}

class \\Phalcon\\ModelBase extends \\Phalcon\\Mvc\\Model {
}

class \\Phalcon\\Builder\\Build extends \\Phalcon\\DI\\Injectable {
}

class \\Phalcon\\Builder\\Controller extends \\Phalcon\\DI\\Injectable {
}

class \\Phalcon\\Builder\\Form extends \\Phalcon\\Tag {
}

class \\Phalcon\\Builder\\Js extends \\Phalcon\\DI\\Injectable {
}

class \\Phalcon\\Builder\\Migration extends \\Phalcon\\DI\\Injectable {
}

class \\Phalcon\\Builder\\Model extends \\Phalcon\\DI\\Injectable {
}

class \\Phalcon\\Builder\\Sass extends \\Phalcon\\DI\\Injectable {
}

class \\Phalcon\\Builder\\Scss extends \\Phalcon\\DI\\Injectable {
}

class \\Phalcon\\Builder\\Task extends \\Phalcon\\DI\\Injectable {
}

class \\Phalcon\\Builder\\Utils extends \\Phalcon\\DI\\Injectable {
}

class \\Phalcon\\Tools\\Cli {
}

class \\Manager\\Link {
}

class \\Manager\\User {
}

@enduml

PlantUML version 1.2018.13(Mon Nov 26 18:11:51 CET 2018)
(GPL source distribution)
Java Runtime: OpenJDK Runtime Environment
JVM: OpenJDK 64-Bit Server VM
Java Version: 11.0.19+7-post-Ubuntu-0ubuntu120.04.1
Operating System: Linux
OS Version: 5.15.0-76-generic
Default Encoding: UTF-8
Language: fr
Country: FR
--></g></svg>